<svg width="1038" height="620" viewBox="0 0 1038 620" fill="none" xmlns="http://www.w3.org/2000/svg">
<path d="M284.2 182.384C264.723 177.072 244.359 173.531 219.569 173.531C97.3896 173.531 0 278.889 0 424.088C0 545.382 52.2362 619.752 153.167 619.752C244.359 619.752 284.2 522.362 284.2 522.362V619.752H381.59V0.000305683H284.2V182.384ZM169.104 525.018C119.524 525.018 99.1603 494.916 99.1603 417.005C99.1603 332.01 155.823 265.608 218.684 265.608C257.64 265.608 284.2 282.43 284.2 282.43C284.2 422.317 232.85 525.018 169.104 525.018Z" fill="#0599D7"/>
<path d="M468.352 405.495C468.352 529.445 541.836 619.752 671.099 619.752C779.113 619.752 851.712 540.07 851.712 540.07L805.674 478.094C805.674 478.094 761.406 525.019 690.577 525.019C590.531 525.019 571.053 467.47 571.053 432.941C603.812 442.68 638.341 447.992 670.214 449.763C767.603 452.419 851.712 414.349 851.712 314.303C851.712 240.818 803.903 177.072 679.067 177.072C563.085 177.072 468.352 281.545 468.352 405.495ZM567.512 274.462H754.323V332.896H647.194V369.195H567.512V274.462Z" fill="#0599D7"/>
<path d="M940.258 66.4023V146.085H1037.65V66.4023H940.258ZM941.143 177.072V619.752H1037.65V177.072H941.143Z" fill="#0599D7"/>
</svg>
