<?xml version="1.0" encoding="UTF-8" standalone="no"?>
<!DOCTYPE svg PUBLIC "-//W3C//DTD SVG 1.1//EN" "http://www.w3.org/Graphics/SVG/1.1/DTD/svg11.dtd">
<svg xmlns="http://www.w3.org/2000/svg" xmlns:xlink="http://www.w3.org/1999/xlink" version="1.1" width="1732.2833pt" height="590.55pt" viewBox="0 0 1732.2833 590.55">
<g enable-background="new">
<clipPath id="cp0">
<path transform="matrix(2.7777777,0,0,-2.7777777,0,590.55)" d="M 0 0 L 623.622 0 L 623.622 212.598 L 0 212.598 Z "/>
</clipPath>
<g clip-path="url(#cp0)">
<symbol id="font_1_1">
<path d="M .321 .49400003 C .299 .5 .276 .504 .24800001 .504 C .110000018 .504 0 .38500003 0 .22100002 C 0 .08400001 .059000005 0 .17300001 0 C .276 0 .321 .11000001 .321 .11000001 L .321 0 L .43100003 0 L .43100003 .70000007 L .321 .70000007 L .321 .49400003 M .19100002 .10700001 C .135 .10700001 .112 .141 .112 .22900002 C .112 .32500003 .17600002 .4 .24700003 .4 C .291 .4 .321 .381 .321 .381 C .321 .223 .263 .10700001 .19100002 .10700001 Z "/>
</symbol>
<use xlink:href="#font_1_1" transform="matrix(630.55557,0,0,-630.55557,92.74083,519.6836)" fill="#0599d7"/>
<symbol id="font_2_3">
<path d="M 0 .24200002 C 0 .102000009 .083000008 0 .22900002 0 C .351 0 .433 .09 .433 .09 L .381 .16000001 C .381 .16000001 .331 .10700001 .25100003 .10700001 C .13800001 .10700001 .11600001 .172 .11600001 .21100001 C .15300001 .2 .19200002 .194 .22800003 .192 C .338 .18900001 .433 .23200001 .433 .34500004 C .433 .42800004 .379 .5 .23800002 .5 C .10700001 .5 0 .38200004 0 .24200002 M .112 .39000003 L .323 .39000003 L .323 .324 L .202 .324 L .202 .28300003 L .112 .28300003 L .112 .39000003 Z "/>
</symbol>
<symbol id="font_2_5">
<path d="M 0 .625 L 0 .535 L .110000018 .535 L .110000018 .625 L 0 .625 M .001000002 .5 L .001000002 0 L .110000018 0 L .110000018 .5 L .001000002 .5 Z "/>
</symbol>
<use xlink:href="#font_2_3" transform="matrix(630.55557,0,0,-630.55557,426.30473,519.6836)" fill="#0599d7"/>
<use xlink:href="#font_2_5" transform="matrix(630.55557,0,0,-630.55557,762.39089,519.6836)" fill="#0599d7"/>
</g>
<symbol id="font_3_2">
<path d="M .321 .70000007 L .321 0 L .331 0 L .331 .70000007 L .321 .70000007 M .34100003 .70000007 L .34100003 0 L .351 0 L .351 .70000007 L .34100003 .70000007 M .361 .70000007 L .361 0 L .37100003 0 L .37100003 .70000007 L .361 .70000007 M .381 .70000007 L .381 0 L .391 0 L .391 .70000007 L .381 .70000007 M .40100003 .70000007 L .40100003 0 L .411 0 L .411 .70000007 L .40100003 .70000007 M .421 .70000007 L .421 0 L .43100003 0 L .43100003 .70000007 L .421 .70000007 M .08000001 .5 L .08000001 0 L .09 0 L .09 .5 L .08000001 .5 M .11100002 0 L .11100002 .5 L .10100001 .5 L .10100001 0 L .11100002 0 M .13100001 .39000003 L .13100001 .5 L .12100001 .5 L .12100001 .39000003 L .13100001 .39000003 M .15100001 .39000003 L .15100001 .5 L .14100002 .5 L .14100002 .39000003 L .15100001 .39000003 M .17100002 .39000003 L .17100002 .5 L .16100002 .5 L .16100002 .39000003 L .17100002 .39000003 M .19100002 .39000003 L .19100002 .5 L .18100001 .5 L .18100001 .39000003 L .19100002 .39000003 M .21100001 .39000003 L .21100001 .5 L .20100002 .5 L .20100002 .39000003 L .21100001 .39000003 M .23100002 .39000003 L .23100002 .5 L .22100003 .5 L .22100003 .39000003 L .23100002 .39000003 M .25100003 .39000003 L .25100003 .5 L .24100001 .5 L .24100001 .39000003 L .25100003 .39000003 M .271 .39000003 L .271 .5 L .261 .5 L .261 .39000003 L .271 .39000003 M .28100003 .5 L .28100003 .39000003 L .291 .39000003 L .291 .5 L .28100003 .5 M .301 .5 L .301 .39000003 L .31100003 .39000003 L .31100003 .5 L .301 .5 M 0 .39000003 L 0 .09 L .010000002 .09 L .010000002 .39000003 L 0 .39000003 M .02 .39000003 L .02 .09 L .030000005 .09 L .030000005 .39000003 L .02 .39000003 M .040000004 .39000003 L .040000004 .09 L .05 .09 L .05 .39000003 L .040000004 .39000003 M .060000007 .39000003 L .060000007 .09 L .07000001 .09 L .07000001 .39000003 L .060000007 .39000003 M .21100001 0 L .21100001 .22100002 L .20100002 .22100002 L .20100002 0 L .21100001 0 M .23100002 0 L .23100002 .22100002 L .22100003 .22100002 L .22100003 0 L .23100002 0 M .25100003 .11000001 L .25100003 .22100002 L .24100001 .22100002 L .24100001 .11000001 L .25100003 .11000001 M .271 .11000001 L .271 .22100002 L .261 .22100002 L .261 .11000001 L .271 .11000001 M .28100003 .22100002 L .28100003 .11000001 L .291 .11000001 L .291 .22100002 L .28100003 .22100002 M .301 .22100002 L .301 .11000001 L .31100003 .11000001 L .31100003 .22100002 L .301 .22100002 M .13100001 0 L .13100001 .11000001 L .12100001 .11000001 L .12100001 0 L .13100001 0 M .15100001 0 L .15100001 .11000001 L .14100002 .11000001 L .14100002 0 L .15100001 0 M .17100002 0 L .17100002 .11000001 L .16100002 .11000001 L .16100002 0 L .17100002 0 M .19100002 0 L .19100002 .11000001 L .18100001 .11000001 L .18100001 0 L .19100002 0 Z "/>
</symbol>
<symbol id="font_3_3">
<path d="M .08000001 .5 L .08000001 0 L .09 0 L .09 .5 L .08000001 .5 M .11100002 0 L .11100002 .5 L .10100001 .5 L .10100001 0 L .11100002 0 M .13100001 .39000003 L .13100001 .5 L .12100001 .5 L .12100001 .39000003 L .13100001 .39000003 M .15100001 .39000003 L .15100001 .5 L .14100002 .5 L .14100002 .39000003 L .15100001 .39000003 M .17100002 .39000003 L .17100002 .5 L .16100002 .5 L .16100002 .39000003 L .17100002 .39000003 M .19100002 .39000003 L .19100002 .5 L .18100001 .5 L .18100001 .39000003 L .19100002 .39000003 M .21100001 .39000003 L .21100001 .5 L .20100002 .5 L .20100002 .39000003 L .21100001 .39000003 M .23100002 .39000003 L .23100002 .5 L .22100003 .5 L .22100003 .39000003 L .23100002 .39000003 M .252 .39000003 L .252 .5 L .24200003 .5 L .24200003 .39000003 L .252 .39000003 M .272 .39000003 L .272 .5 L .262 .5 L .262 .39000003 L .272 .39000003 M .292 .39000003 L .292 .5 L .282 .5 L .282 .39000003 L .292 .39000003 M .312 .39000003 L .312 .5 L .30200003 .5 L .30200003 .39000003 L .312 .39000003 M .322 .5 L .322 .21400002 L .33200003 .21400002 L .33200003 .5 L .322 .5 M .342 .5 L .342 .21400002 L .352 .21400002 L .352 .5 L .342 .5 M .36200003 .42800004 L .36200003 .21400002 L .372 .21400002 L .372 .42800004 L .36200003 .42800004 M .382 .42800004 L .382 .21400002 L .39200003 .21400002 L .39200003 .42800004 L .382 .42800004 M .402 .42800004 L .402 .21400002 L .412 .21400002 L .412 .42800004 L .402 .42800004 M .42200003 .42800004 L .42200003 .21400002 L .432 .21400002 L .432 .42800004 L .42200003 .42800004 M 0 .41000004 L 0 .11000001 L .010000002 .11000001 L .010000002 .41000004 L 0 .41000004 M .02 .41000004 L .02 .11000001 L .030000005 .11000001 L .030000005 .41000004 L .02 .41000004 M .040000004 .41000004 L .040000004 .11000001 L .05 .11000001 L .05 .41000004 L .040000004 .41000004 M .060000007 .41000004 L .060000007 .11000001 L .07000001 .11000001 L .07000001 .41000004 L .060000007 .41000004 M .21200003 .17300001 L .21200003 .324 L .202 .324 L .202 .17300001 L .21200003 .17300001 M .23100002 .17300001 L .23100002 .324 L .22100003 .324 L .22100003 .17300001 L .23100002 .17300001 M .252 .21400002 L .252 .324 L .24200003 .324 L .24200003 .21400002 L .252 .21400002 M .262 .324 L .262 .21400002 L .272 .21400002 L .272 .324 L .262 .324 M .292 .21400002 L .292 .324 L .282 .324 L .282 .21400002 L .292 .21400002 M .312 .21400002 L .312 .324 L .30200003 .324 L .30200003 .21400002 L .312 .21400002 M .13200002 .17300001 L .13200002 .28300003 L .12200001 .28300003 L .12200001 .17300001 L .13200002 .17300001 M .15200001 .17300001 L .15200001 .28300003 L .142 .28300003 L .142 .17300001 L .15200001 .17300001 M .17200002 .17300001 L .17200002 .28300003 L .16200002 .28300003 L .16200002 .17300001 L .17200002 .17300001 M .19200002 .17300001 L .19200002 .28300003 L .18200001 .28300003 L .18200001 .17300001 L .19200002 .17300001 M .13100001 0 L .13100001 .11000001 L .12100001 .11000001 L .12100001 0 L .13100001 0 M .15100001 0 L .15100001 .11000001 L .14100002 .11000001 L .14100002 0 L .15100001 0 M .17100002 0 L .17100002 .11000001 L .16100002 .11000001 L .16100002 0 L .17100002 0 M .19100002 0 L .19100002 .11000001 L .18100001 .11000001 L .18100001 0 L .19100002 0 M .21100001 0 L .21100001 .11000001 L .20100002 .11000001 L .20100002 0 L .21100001 0 M .23100002 0 L .23100002 .11000001 L .22100003 .11000001 L .22100003 0 L .23100002 0 M .25100003 0 L .25100003 .11000001 L .24100001 .11000001 L .24100001 0 L .25100003 0 M .271 0 L .271 .11000001 L .261 .11000001 L .261 0 L .271 0 M .291 0 L .291 .11000001 L .28100003 .11000001 L .28100003 0 L .291 0 M .31100003 0 L .31100003 .11000001 L .301 .11000001 L .301 0 L .31100003 0 M .331 0 L .331 .11000001 L .321 .11000001 L .321 0 L .331 0 M .352 0 L .352 .11000001 L .342 .11000001 L .342 0 L .352 0 Z "/>
</symbol>
<use xlink:href="#font_3_2" transform="matrix(113.888889,0,0,-113.888889,936.33969,264.12806)" fill="#0599d7"/>
<use xlink:href="#font_3_3" transform="matrix(113.888889,0,0,-113.888889,996.3591,264.12806)" fill="#0599d7"/>
<symbol id="font_4_5">
<path d="M .11100002 .21000001 C .13300002 .204 .15500002 .2 .18300002 .2 C .321 .2 .432 .315 .432 .47900004 C .432 .61700007 .366 .7 .259 .7 C .19200002 .7 .13400002 .65500006 .110000018 .59800007 L .110000018 .7 L 0 .7 L 0 0 L .11100002 0 L .11100002 .21000001 M .23500003 .591 C .299 .591 .32 .55 .32 .48000003 C .32 .37300004 .266 .30400003 .18400002 .30400003 C .13800001 .30400003 .10800001 .32200004 .110000018 .32200004 C .110000018 .49300004 .16300002 .591 .23500003 .591 Z "/>
</symbol>
<use xlink:href="#font_4_5" transform="matrix(113.888889,0,0,-113.888889,1058.2008,286.90583)" fill="#0599d7"/>
<symbol id="font_2_1">
<path d="M .17300001 0 C .24800001 0 .297 .053000004 .321 .11000001 L .321 0 L .43100003 0 L .43 .43800003 C .386 .46800003 .335 .50100007 .24800001 .50100007 C .106000009 .50100007 0 .38700003 0 .223 C 0 .08800001 .069000009 0 .17300001 0 M .11100002 .11100001 L .110000018 .39000003 L .321 .39000003 L .321 .22100002 L .22100003 .22100002 L .22100003 .11100001 L .11100002 .11100001 Z "/>
</symbol>
<use xlink:href="#font_2_1" transform="matrix(113.888889,0,0,-113.888889,1119.8147,264.12806)" fill="#0599d7"/>
<symbol id="font_5_6">
<path d="M .432 .39100004 L .352 .39100004 L .352 .5 L .16100002 .5 L .16100002 .43800003 L .11100002 .43800003 L .11100002 .5 L 0 .5 L .001000002 0 L .112 0 L .11100002 .328 L .19100002 .328 L .19100002 .39000003 L .322 .39000003 L .322 .28100003 L .432 .28100003 L .432 .39100004 Z "/>
</symbol>
<use xlink:href="#font_5_6" transform="matrix(113.888889,0,0,-113.888889,1182.4535,264.12806)" fill="#0599d7"/>
<symbol id="font_2_8">
<path d="M .23 .11000001 L .23 .007 C .23 .007 .2 0 .16900002 0 C .061000009 0 0 .041 0 .2 L 0 .61300006 L .110000018 .61300006 L .110000018 .5 L .23 .5 L .23 .39000003 L .110000018 .39000003 C .110000018 .31300003 .11100002 .11000001 .11100002 .11000001 L .23 .11000001 Z "/>
</symbol>
<use xlink:href="#font_2_8" transform="matrix(113.888889,0,0,-113.888889,1241.9036,264.12806)" fill="#0599d7"/>
<symbol id="font_5_2">
<path d="M .43100003 .5 L .08000001 .5 L .08000001 .39000003 L 0 .39000003 L 0 .09 L .08000001 .09 L .08000001 0 L .24100001 0 L .24100001 .11000001 L .321 .11000001 L .321 0 L .43100003 0 L .43100003 .5 M .321 .22100002 L .20100002 .22100002 L .20100002 .11000001 L .11100002 .11000001 L .11100002 .39000003 L .321 .39000003 L .321 .22100002 Z "/>
</symbol>
<use xlink:href="#font_5_2" transform="matrix(113.888889,0,0,-113.888889,1279.0313,264.12806)" fill="#0599d7"/>
<symbol id="font_4_2">
<path d="M .42200003 .395 C .40100003 .46 .352 .5 .274 .5 C .16000001 .5 .110000018 .39400003 .110000018 .39400003 L .110000018 .5 L 0 .5 L 0 0 L .110000018 0 L .110000018 .18300002 C .110000018 .31500004 .17200002 .393 .246 .393 C .301 .393 .32 .34100003 .32 .286 L .32 0 L .432 0 L .432 .18300002 C .432 .31500004 .499 .393 .565 .393 C .62 .393 .64500007 .34100003 .64500007 .286 L .64500007 0 L .75500008 0 L .75500008 .30800004 C .75500008 .418 .703 .5 .593 .5 C .477 .5 .42200003 .395 .42200003 .395 Z "/>
</symbol>
<use xlink:href="#font_4_2" transform="matrix(113.888889,0,0,-113.888889,1341.5563,264.12806)" fill="#0599d7"/>
<symbol id="font_6_2">
<path d="M .08000001 0 L .09 0 L .09 .5 L .08000001 .5 L .08000001 0 M .10100001 0 L .11100002 0 L .11100002 .5 L .10100001 .5 L .10100001 0 M .13100001 .5 L .12100001 .5 L .12100001 .39000003 L .13100001 .39000003 L .13100001 .5 M .15100001 .5 L .14100002 .5 L .14100002 .39000003 L .15100001 .39000003 L .15100001 .5 M .17100002 .5 L .16100002 .5 L .16100002 .39000003 L .17100002 .39000003 L .17100002 .5 M .19100002 .5 L .18100001 .5 L .18100001 .39000003 L .19100002 .39000003 L .19100002 .5 M .21100001 .5 L .20100002 .5 L .20100002 .39000003 L .21100001 .39000003 L .21100001 .5 M .22100003 .39000003 L .23100002 .39000003 L .23100002 .5 L .22100003 .5 L .22100003 .39000003 M .24200003 .39000003 L .252 .39000003 L .252 .5 L .24200003 .5 L .24200003 .39000003 M .262 .39000003 L .272 .39000003 L .272 .5 L .262 .5 L .262 .39000003 M .282 .39000003 L .292 .39000003 L .292 .5 L .282 .5 L .282 .39000003 M .30200003 .39000003 L .312 .39000003 L .312 .5 L .30200003 .5 L .30200003 .39000003 M .322 .21400002 L .33200003 .21400002 L .33200003 .5 L .322 .5 L .322 .21400002 M .342 .21400002 L .352 .21400002 L .352 .5 L .342 .5 L .342 .21400002 M .36200003 .21400002 L .372 .21400002 L .372 .42800004 L .36200003 .42800004 L .36200003 .21400002 M .382 .21400002 L .39200003 .21400002 L .39200003 .42800004 L .382 .42800004 L .382 .21400002 M .402 .21400002 L .412 .21400002 L .412 .42800004 L .402 .42800004 L .402 .21400002 M .42200003 .42800004 L .42200003 .21400002 L .432 .21400002 L .432 .42800004 L .42200003 .42800004 M 0 .11000001 L .010000002 .11000001 L .010000002 .41000004 L 0 .41000004 L 0 .11000001 M .02 .11000001 L .030000005 .11000001 L .030000005 .41000004 L .02 .41000004 L .02 .11000001 M .040000004 .11000001 L .05 .11000001 L .05 .41000004 L .040000004 .41000004 L .040000004 .11000001 M .060000007 .11000001 L .07000001 .11000001 L .07000001 .41000004 L .060000007 .41000004 L .060000007 .11000001 M .202 .28300003 L .142 .28300003 L .142 .17300001 L .21200003 .17300001 L .21200003 .324 L .202 .324 L .202 .28300003 M .22100003 .17300001 L .23100002 .17300001 L .23100002 .324 L .22100003 .324 L .22100003 .17300001 M .24200003 .21400002 L .252 .21400002 L .252 .324 L .24200003 .324 L .24200003 .21400002 M .262 .21400002 L .272 .21400002 L .272 .324 L .262 .324 L .262 .21400002 M .282 .21400002 L .292 .21400002 L .292 .324 L .282 .324 L .282 .21400002 M .30200003 .21400002 L .312 .21400002 L .312 .324 L .30200003 .324 L .30200003 .21400002 M .12200001 .17300001 L .13200002 .17300001 L .13200002 .28300003 L .12200001 .28300003 L .12200001 .17300001 M .12100001 0 L .13100001 0 L .13100001 .11000001 L .12100001 .11000001 L .12100001 0 M .14100002 0 L .15100001 0 L .15100001 .11000001 L .14100002 .11000001 L .14100002 0 M .16100002 0 L .17100002 0 L .17100002 .11000001 L .16100002 .11000001 L .16100002 0 M .18100001 0 L .19100002 0 L .19100002 .11000001 L .18100001 .11000001 L .18100001 0 M .20100002 0 L .21100001 0 L .21100001 .11000001 L .20100002 .11000001 L .20100002 0 M .22100003 0 L .23100002 0 L .23100002 .11000001 L .22100003 .11000001 L .22100003 0 M .24100001 0 L .25100003 0 L .25100003 .11000001 L .24100001 .11000001 L .24100001 0 M .261 0 L .271 0 L .271 .11000001 L .261 .11000001 L .261 0 M .28100003 0 L .291 0 L .291 .11000001 L .28100003 .11000001 L .28100003 0 M .301 0 L .31100003 0 L .31100003 .11000001 L .301 .11000001 L .301 0 M .321 0 L .331 0 L .331 .11000001 L .321 .11000001 L .321 0 M .342 0 L .352 0 L .352 .11000001 L .342 .11000001 L .342 0 Z "/>
</symbol>
<use xlink:href="#font_6_2" transform="matrix(113.888889,0,0,-113.888889,1440.4119,264.12806)" fill="#0599d7"/>
<symbol id="font_3_7">
<path d="M .010000002 0 L .010000002 .5 L 0 .5 L 0 0 L .010000002 0 M .030000005 0 L .030000005 .5 L .02 .5 L .02 0 L .030000005 0 M .05 0 L .05 .5 L .040000004 .5 L .040000004 0 L .05 0 M .07000001 0 L .07000001 .5 L .060000007 .5 L .060000007 0 L .07000001 0 M .09 0 L .09 .5 L .08000001 .5 L .08000001 0 L .09 0 M .110000018 0 L .110000018 .5 L .10000001 .5 L .10000001 0 L .110000018 0 M .16000001 .5 L .16000001 .28300003 L .17000002 .28300003 L .17000002 .5 L .16000001 .5 M .18 .5 L .18 .28300003 L .19000001 .28300003 L .19000001 .5 L .18 .5 M .2 .5 L .2 .39100004 L .21000003 .39100004 L .21000003 .5 L .2 .5 M .22000002 .5 L .22000002 .39100004 L .23 .39100004 L .23 .5 L .22000002 .5 M .24000003 .5 L .24000003 .39100004 L .25 .39100004 L .25 .5 L .24000003 .5 M .26 .5 L .26 .39100004 L .27 .39100004 L .27 .5 L .26 .5 M .28 .5 L .28 .39100004 L .29 .39100004 L .29 .5 L .28 .5 M .3 .5 L .3 .39100004 L .31 .39100004 L .31 .5 L .3 .5 M .32 .5 L .32 0 L .33 0 L .33 .5 L .32 .5 M .351 0 L .351 .5 L .34100003 .5 L .34100003 0 L .351 0 M .37100003 0 L .37100003 .446 L .361 .446 L .361 0 L .37100003 0 M .391 0 L .391 .446 L .381 .446 L .381 0 L .391 0 M .411 0 L .411 .446 L .40100003 .446 L .40100003 0 L .411 0 M .42200003 .446 L .42200003 0 L .432 0 L .432 .446 L .42200003 .446 M .13000001 .28300003 L .13000001 .39200003 L .120000008 .39200003 L .120000008 .28300003 L .13000001 .28300003 M .14000002 .39200003 L .14000002 .28300003 L .15 .28300003 L .15 .39200003 L .14000002 .39200003 Z "/>
</symbol>
<use xlink:href="#font_3_7" transform="matrix(113.888889,0,0,-113.888889,1500.0897,264.12806)" fill="#0599d7"/>
<symbol id="font_5_7">
<path d="M .110000018 .39000003 L .23 .39000003 L .23 .5 L .110000018 .5 L .110000018 .61300006 L 0 .61300006 L 0 .11000001 L .08000001 .11000001 L .08000001 0 L .23 0 L .23 .11000001 L .110000018 .11000001 L .110000018 .39000003 Z "/>
</symbol>
<use xlink:href="#font_5_7" transform="matrix(113.888889,0,0,-113.888889,1560.3369,264.12806)" fill="#0599d7"/>
<symbol id="font_4_4">
<path d="M .21900003 0 C .36200003 0 .435 .115 .435 .25800003 C .435 .40000005 .36200003 .51500007 .21900003 .51500007 C .07700001 .51500007 0 .40000005 0 .25800003 C 0 .115 .07700001 0 .21900003 0 M .21800001 .111 C .13800001 .111 .10800001 .176 .10800001 .25700004 C .10800001 .33700005 .13800001 .40300004 .21800001 .40300004 C .299 .40300004 .328 .33700005 .327 .25700004 C .326 .176 .299 .111 .21800001 .111 Z "/>
</symbol>
<symbol id="font_4_1">
<path d="M .321 .49200005 C .29900003 .49800004 .275 .50200006 .24700001 .50200006 C .10900001 .50200006 0 .38100005 0 .21700001 C 0 .08 .075 0 .17700002 0 C .25000004 0 .29700003 .042000005 .319 .083000008 L .321 .083000008 L .321 0 L .42900003 0 L .42900003 .6980001 L .321 .6980001 L .321 .49200005 M .19700001 .105000007 C .14000002 .105000007 .110000018 .149 .110000018 .22800002 C .110000018 .32400004 .17500001 .40000005 .24600002 .40000005 C .277 .40000005 .305 .39000006 .321 .38000003 C .321 .238 .28700004 .105000007 .19700001 .105000007 Z "/>
</symbol>
<use xlink:href="#font_4_4" transform="matrix(113.888889,0,0,-113.888889,1595.5287,264.01417)" fill="#0599d7"/>
<use xlink:href="#font_4_1" transform="matrix(113.888889,0,0,-113.888889,936.2259,391.7975)" fill="#0599d7"/>
<use xlink:href="#font_3_3" transform="matrix(113.888889,0,0,-113.888889,998.1814,391.91139)" fill="#0599d7"/>
<symbol id="font_5_1">
<path d="M 0 0 Z "/>
</symbol>
<use xlink:href="#font_5_1" transform="matrix(113.888889,0,0,-113.888889,1053.0759,391.91139)" fill="#0599d7"/>
<use xlink:href="#font_6_2" transform="matrix(113.888889,0,0,-113.888889,1081.5481,391.91139)" fill="#0599d7"/>
<symbol id="font_2_6">
<path d="M .110000018 .393 L .110000018 .5 L 0 .5 L 0 0 L .110000018 0 L .110000018 .28300003 L .19100002 .28300003 C .19100002 .28300003 .19100002 .36900003 .19100002 .39100004 L .32 .39100004 L .32 0 L .432 0 L .432 .30800004 C .432 .418 .384 .5 .274 .5 C .16700001 .5 .110000018 .393 .110000018 .393 Z "/>
</symbol>
<use xlink:href="#font_2_6" transform="matrix(113.888889,0,0,-113.888889,1143.6176,391.91139)" fill="#0599d7"/>
<symbol id="font_3_5">
<path d="M .08000001 .7 L .08000001 .2 L .09 .2 L .09 .7 L .08000001 .7 M .11100002 .2 L .11100002 .7 L .10100001 .7 L .10100001 .2 L .11100002 .2 M .13100001 .59000006 L .13100001 .7 L .12100001 .7 L .12100001 .59000006 L .13100001 .59000006 M .15100001 .59000006 L .15100001 .7 L .14100002 .7 L .14100002 .59000006 L .15100001 .59000006 M .17100002 .59000006 L .17100002 .7 L .16100002 .7 L .16100002 .59000006 L .17100002 .59000006 M .19100002 .59000006 L .19100002 .7 L .18100001 .7 L .18100001 .59000006 L .19100002 .59000006 M .21100001 .59000006 L .21100001 .7 L .20100002 .7 L .20100002 .59000006 L .21100001 .59000006 M .23100002 .59000006 L .23100002 .7 L .22100003 .7 L .22100003 .59000006 L .23100002 .59000006 M .25100003 .535 L .25100003 .7 L .24100001 .7 L .24100001 .535 L .25100003 .535 M .271 .535 L .271 .7 L .261 .7 L .261 .535 L .271 .535 M .321 .7 L .321 0 L .331 0 L .331 .7 L .321 .7 M .34100003 .7 L .34100003 0 L .351 0 L .351 .7 L .34100003 .7 M .361 .7 L .361 .111 L .37100003 .111 L .37100003 .7 L .361 .7 M .381 .7 L .381 .111 L .391 .111 L .391 .7 L .381 .7 M .40100003 .7 L .40100003 .111 L .411 .111 L .411 .7 L .40100003 .7 M .421 .7 L .421 .111 L .43100003 .111 L .43100003 .7 L .421 .7 M .28100003 .64500007 L .28100003 .535 L .291 .535 L .291 .64500007 L .28100003 .64500007 M .301 .64500007 L .301 .535 L .31100003 .535 L .31100003 .64500007 L .301 .64500007 M 0 .59000006 L 0 .29000003 L .010000002 .29000003 L .010000002 .59000006 L 0 .59000006 M .02 .59000006 L .02 .29000003 L .030000005 .29000003 L .030000005 .59000006 L .02 .59000006 M .040000004 .59000006 L .040000004 .29000003 L .05 .29000003 L .05 .59000006 L .040000004 .59000006 M .060000007 .59000006 L .060000007 .29000003 L .07000001 .29000003 L .07000001 .59000006 L .060000007 .59000006 M .21100001 .2 L .21100001 .421 L .20100002 .421 L .20100002 .2 L .21100001 .2 M .23100002 .2 L .23100002 .421 L .22100003 .421 L .22100003 .2 L .23100002 .2 M .25100003 .31 L .25100003 .421 L .24100001 .421 L .24100001 .31 L .25100003 .31 M .271 .31 L .271 .421 L .261 .421 L .261 .31 L .271 .31 M .28100003 .421 L .28100003 .31 L .291 .31 L .291 .421 L .28100003 .421 M .301 .421 L .301 .31 L .31100003 .31 L .31100003 .421 L .301 .421 M .13100001 .2 L .13100001 .31 L .12100001 .31 L .12100001 .2 L .13100001 .2 M .15100001 .2 L .15100001 .31 L .14100002 .31 L .14100002 .2 L .15100001 .2 M .17100002 .2 L .17100002 .31 L .16100002 .31 L .16100002 .2 L .17100002 .2 M .19100002 .2 L .19100002 .31 L .18100001 .31 L .18100001 .2 L .19100002 .2 M .091000009 .111 L .081000018 .111 L .081000018 0 L .091000009 0 L .091000009 .111 M .11100002 .111 L .10100001 .111 L .10100001 0 L .11100002 0 L .11100002 .111 M .13100001 .111 L .12100001 .111 L .12100001 0 L .13100001 0 L .13100001 .111 M .15100001 .111 L .14100002 .111 L .14100002 0 L .15100001 0 L .15100001 .111 M .17100002 .111 L .16100002 .111 L .16100002 0 L .17100002 0 L .17100002 .111 M .19100002 .111 L .18100001 .111 L .18100001 0 L .19100002 0 L .19100002 .111 M .21100001 .111 L .20100002 .111 L .20100002 0 L .21100001 0 L .21100001 .111 M .23100002 .111 L .22100003 .111 L .22100003 0 L .23100002 0 L .23100002 .111 M .25100003 .111 L .24100001 .111 L .24100001 0 L .25100003 0 L .25100003 .111 M .271 .111 L .261 .111 L .261 0 L .271 0 L .271 .111 M .28100003 0 L .291 0 L .291 .111 L .28100003 .111 L .28100003 0 M .301 0 L .31100003 0 L .31100003 .111 L .301 .111 L .301 0 Z "/>
</symbol>
<use xlink:href="#font_3_5" transform="matrix(113.888889,0,0,-113.888889,1205.8008,414.68916)" fill="#0599d7"/>
<symbol id="font_5_3">
<path d="M .432 .42800004 L .352 .42800004 L .352 .5 L .08000001 .5 L .08000001 .41000004 L 0 .41000004 L 0 .11000001 L .08000001 .11000001 L .08000001 0 L .352 0 L .352 .11000001 L .11100002 .11000001 L .11100002 .17300001 L .23100002 .17300001 L .23100002 .21400002 L .432 .21400002 L .432 .42800004 M .322 .324 L .202 .324 L .202 .28300003 L .11100002 .28300003 L .11100002 .39000003 L .322 .39000003 L .322 .324 Z "/>
</symbol>
<use xlink:href="#font_5_3" transform="matrix(113.888889,0,0,-113.888889,1265.8202,391.91139)" fill="#0599d7"/>
<symbol id="font_6_4">
<path d="M 0 0 L .010000002 0 L .010000002 .5 L 0 .5 L 0 0 M .02 0 L .030000005 0 L .030000005 .5 L .02 .5 L .02 0 M .040000004 .5 L .040000004 0 L .07000001 0 L .07000001 .5 L .040000004 .5 M .08000001 0 L .09 0 L .09 .5 L .08000001 .5 L .08000001 0 M .10000001 0 L .110000018 0 L .110000018 .5 L .10000001 .5 L .10000001 0 M .16000001 .28300003 L .17000002 .28300003 L .17000002 .5 L .16000001 .5 L .16000001 .28300003 M .18 .28300003 L .19000001 .28300003 L .19000001 .5 L .18 .5 L .18 .28300003 M .2 .39100004 L .21000003 .39100004 L .21000003 .5 L .2 .5 L .2 .39100004 M .22000002 .39100004 L .23 .39100004 L .23 .5 L .22000002 .5 L .22000002 .39100004 M .24000003 .5 L .24000003 .39100004 L .27 .39100004 L .27 .5 L .24000003 .5 M .28 .39100004 L .29 .39100004 L .29 .5 L .28 .5 L .28 .39100004 M .3 .39100004 L .31 .39100004 L .31 .5 L .3 .5 L .3 .39100004 M .32 0 L .33 0 L .33 .5 L .32 .5 L .32 0 M .34100003 0 L .351 0 L .351 .5 L .34100003 .5 L .34100003 0 M .361 0 L .37100003 0 L .37100003 .446 L .361 .446 L .361 0 M .381 0 L .391 0 L .391 .446 L .381 .446 L .381 0 M .40100003 0 L .411 0 L .411 .446 L .40100003 .446 L .40100003 0 M .42200003 .446 L .42200003 0 L .432 0 L .432 .446 L .42200003 .446 M .120000008 .28300003 L .13000001 .28300003 L .13000001 .39200003 L .120000008 .39200003 L .120000008 .28300003 M .14000002 .28300003 L .15 .28300003 L .15 .39200003 L .14000002 .39200003 L .14000002 .28300003 Z "/>
</symbol>
<use xlink:href="#font_6_4" transform="matrix(113.888889,0,0,-113.888889,1325.498,391.91139)" fill="#0599d7"/>
<symbol id="font_2_4">
<path d="M .277 .503 C .16000001 .503 .110000018 .39100004 .110000018 .39100004 L .110000018 .70000007 L 0 .70000007 L 0 0 L .110000018 0 L .110000018 .28300003 L .2 .28300003 L .2 .39100004 C .2 .39100004 .28800003 .39100004 .32 .39100004 L .32 0 L .432 0 L .432 .30800004 C .432 .418 .387 .503 .277 .503 Z "/>
</symbol>
<use xlink:href="#font_2_4" transform="matrix(113.888889,0,0,-113.888889,1388.3646,391.91139)" fill="#0599d7"/>
<symbol id="font_3_1">
<path d="M .08000001 .5 L .08000001 0 L .09 0 L .09 .5 L .08000001 .5 M .11100002 0 L .11100002 .5 L .10100001 .5 L .10100001 0 L .11100002 0 M .13100001 .39000003 L .13100001 .5 L .12100001 .5 L .12100001 .39000003 L .13100001 .39000003 M .15100001 .39000003 L .15100001 .5 L .14100002 .5 L .14100002 .39000003 L .15100001 .39000003 M .17100002 .39000003 L .17100002 .5 L .16100002 .5 L .16100002 .39000003 L .17100002 .39000003 M .19100002 .39000003 L .19100002 .5 L .18100001 .5 L .18100001 .39000003 L .19100002 .39000003 M .21100001 .39000003 L .21100001 .5 L .20100002 .5 L .20100002 .39000003 L .21100001 .39000003 M .23100002 .39000003 L .23100002 .5 L .22100003 .5 L .22100003 .39000003 L .23100002 .39000003 M .25100003 .39000003 L .25100003 .5 L .24100001 .5 L .24100001 .39000003 L .25100003 .39000003 M .271 .39000003 L .271 .5 L .261 .5 L .261 .39000003 L .271 .39000003 M .28100003 .5 L .28100003 .39000003 L .291 .39000003 L .291 .5 L .28100003 .5 M .301 .5 L .301 .39000003 L .31100003 .39000003 L .31100003 .5 L .301 .5 M .321 .5 L .321 0 L .331 0 L .331 .5 L .321 .5 M .34100003 .5 L .34100003 0 L .351 0 L .351 .5 L .34100003 .5 M .361 .5 L .361 0 L .37100003 0 L .37100003 .5 L .361 .5 M .381 .5 L .381 0 L .391 0 L .391 .5 L .381 .5 M .40100003 .5 L .40100003 0 L .411 0 L .411 .5 L .40100003 .5 M .421 .5 L .421 0 L .43100003 0 L .43100003 .5 L .421 .5 M 0 .39000003 L 0 .09 L .010000002 .09 L .010000002 .39000003 L 0 .39000003 M .02 .39000003 L .02 .09 L .030000005 .09 L .030000005 .39000003 L .02 .39000003 M .040000004 .39000003 L .040000004 .09 L .05 .09 L .05 .39000003 L .040000004 .39000003 M .060000007 .39000003 L .060000007 .09 L .07000001 .09 L .07000001 .39000003 L .060000007 .39000003 M .21100001 0 L .21100001 .22100002 L .20100002 .22100002 L .20100002 0 L .21100001 0 M .23100002 0 L .23100002 .22100002 L .22100003 .22100002 L .22100003 0 L .23100002 0 M .25100003 .11000001 L .25100003 .22100002 L .24100001 .22100002 L .24100001 .11000001 L .25100003 .11000001 M .271 .11000001 L .271 .22100002 L .261 .22100002 L .261 .11000001 L .271 .11000001 M .28100003 .22100002 L .28100003 .11000001 L .291 .11000001 L .291 .22100002 L .28100003 .22100002 M .301 .22100002 L .301 .11000001 L .31100003 .11000001 L .31100003 .22100002 L .301 .22100002 M .13100001 0 L .13100001 .11000001 L .12100001 .11000001 L .12100001 0 L .13100001 0 M .15100001 0 L .15100001 .11000001 L .14100002 .11000001 L .14100002 0 L .15100001 0 M .17100002 0 L .17100002 .11000001 L .16100002 .11000001 L .16100002 0 L .17100002 0 M .19100002 0 L .19100002 .11000001 L .18100001 .11000001 L .18100001 0 L .19100002 0 Z "/>
</symbol>
<use xlink:href="#font_3_1" transform="matrix(113.888889,0,0,-113.888889,1450.548,391.91139)" fill="#0599d7"/>
<use xlink:href="#font_5_6" transform="matrix(113.888889,0,0,-113.888889,1510.909,391.91139)" fill="#0599d7"/>
<symbol id="font_3_6">
<path d="M 0 .624 L 0 .536 L .010000002 .536 L .010000002 .624 L 0 .624 M .02 .624 L .02 .536 L .030000005 .536 L .030000005 .624 L .02 .624 M .040000004 .624 L .040000004 .536 L .05 .536 L .05 .624 L .040000004 .624 M .060000007 .624 L .060000007 .536 L .07000001 .536 L .07000001 .624 L .060000007 .624 M .08000001 .624 L .08000001 .536 L .09 .536 L .09 .624 L .08000001 .624 M .10000001 .624 L .10000001 .536 L .110000018 .536 L .110000018 .624 L .10000001 .624 M 0 .5 L 0 0 L .010000002 0 L .010000002 .5 L 0 .5 M .02 .5 L .02 0 L .030000005 0 L .030000005 .5 L .02 .5 M .040000004 .5 L .040000004 0 L .05 0 L .05 .5 L .040000004 .5 M .060000007 .5 L .060000007 0 L .07000001 0 L .07000001 .5 L .060000007 .5 M .08000001 .5 L .08000001 0 L .09 0 L .09 .5 L .08000001 .5 M .10000001 .5 L .10000001 0 L .110000018 0 L .110000018 .5 L .10000001 .5 Z "/>
</symbol>
<use xlink:href="#font_3_6" transform="matrix(113.888889,0,0,-113.888889,1570.3589,391.91139)" fill="#0599d7"/>
<use xlink:href="#font_2_1" transform="matrix(113.888889,0,0,-113.888889,1595.0728,391.91139)" fill="#0599d7"/>
<symbol id="font_5_4">
<path d="M .110000018 .624 L 0 .624 L 0 .536 L .110000018 .536 L .110000018 .624 M .110000018 .5 L 0 .5 L 0 0 L .110000018 0 L .110000018 .5 Z "/>
</symbol>
<use xlink:href="#font_5_4" transform="matrix(113.888889,0,0,-113.888889,935.9977,519.6947)" fill="#0599d7"/>
<symbol id="font_4_3">
<path d="M .110000018 .393 L .110000018 .5 L 0 .5 L 0 0 L .110000018 0 L .110000018 .18300002 C .110000018 .31500004 .17200002 .39200003 .246 .39200003 C .301 .39200003 .32 .34100003 .32 .286 L .32 0 L .432 0 L .432 .30800004 C .432 .418 .384 .5 .274 .5 C .16700001 .5 .110000018 .393 .110000018 .393 Z "/>
</symbol>
<use xlink:href="#font_4_3" transform="matrix(113.888889,0,0,-113.888889,961.8505,519.6947)" fill="#0599d7"/>
<symbol id="font_3_4">
<path d="M .08000001 .70000007 L .08000001 0 L .09 0 L .09 .70000007 L .08000001 .70000007 M .11100002 0 L .11100002 .70000007 L .10100001 .70000007 L .10100001 0 L .11100002 0 M .13100001 .59000006 L .13100001 .70000007 L .12100001 .70000007 L .12100001 .59000006 L .13100001 .59000006 M .15100001 .59000006 L .15100001 .70000007 L .14100002 .70000007 L .14100002 .59000006 L .15100001 .59000006 M .17100002 .59000006 L .17100002 .70000007 L .16100002 .70000007 L .16100002 .59000006 L .17100002 .59000006 M .19100002 .59000006 L .19100002 .70000007 L .18100001 .70000007 L .18100001 .59000006 L .19100002 .59000006 M .21100001 .59000006 L .21100001 .70000007 L .20100002 .70000007 L .20100002 .59000006 L .21100001 .59000006 M .23100002 .59000006 L .23100002 .70000007 L .22100003 .70000007 L .22100003 .59000006 L .23100002 .59000006 M .252 .59000006 L .252 .70000007 L .24200003 .70000007 L .24200003 .59000006 L .252 .59000006 M .272 .59000006 L .272 .70000007 L .262 .70000007 L .262 .59000006 L .272 .59000006 M .292 .59000006 L .292 .70000007 L .282 .70000007 L .282 .59000006 L .292 .59000006 M .312 .59000006 L .312 .70000007 L .30200003 .70000007 L .30200003 .59000006 L .312 .59000006 M .322 .70000007 L .322 .48100005 L .33200003 .48100005 L .33200003 .70000007 L .322 .70000007 M .342 .70000007 L .342 .48100005 L .352 .48100005 L .352 .70000007 L .342 .70000007 M .36200003 .591 L .36200003 .48100005 L .372 .48100005 L .372 .591 L .36200003 .591 M .382 .591 L .382 .48100005 L .39200003 .48100005 L .39200003 .591 L .382 .591 M .402 .591 L .402 .48100005 L .412 .48100005 L .412 .591 L .402 .591 M .42200003 .591 L .42200003 .48100005 L .432 .48100005 L .432 .591 L .42200003 .591 M 0 .58900007 L 0 0 L .010000002 0 L .010000002 .58900007 L 0 .58900007 M .02 .58900007 L .02 0 L .030000005 0 L .030000005 .58900007 L .02 .58900007 M .040000004 .58900007 L .040000004 0 L .05 0 L .05 .58900007 L .040000004 .58900007 M .060000007 .58900007 L .060000007 0 L .07000001 0 L .07000001 .58900007 L .060000007 .58900007 M .12100001 .448 L .12100001 .33800004 L .13100001 .33800004 L .13100001 .448 L .12100001 .448 M .14100002 .448 L .14100002 .33800004 L .15100001 .33800004 L .15100001 .448 L .14100002 .448 M .16100002 .448 L .16100002 .33800004 L .17100002 .33800004 L .17100002 .448 L .16100002 .448 M .18100001 .448 L .18100001 .33800004 L .19100002 .33800004 L .19100002 .448 L .18100001 .448 M .20100002 .448 L .20100002 .33800004 L .21100001 .33800004 L .21100001 .448 L .20100002 .448 M .22100003 .448 L .22100003 .33800004 L .23100002 .33800004 L .23100002 .448 L .22100003 .448 Z "/>
</symbol>
<use xlink:href="#font_3_4" transform="matrix(113.888889,0,0,-113.888889,1024.3755,519.6947)" fill="#0599d7"/>
<symbol id="font_5_5">
<path d="M .43100003 .39000003 L .351 .39000003 L .351 .5 L .08000001 .5 L .08000001 .39000003 L 0 .39000003 L 0 .11000001 L .08000001 .11000001 L .08000001 0 L .351 0 L .351 .11000001 L .43100003 .11000001 L .43100003 .39000003 M .321 .11000001 L .11100002 .11000001 L .11100002 .39000003 L .321 .39000003 L .321 .11000001 Z "/>
</symbol>
<use xlink:href="#font_5_5" transform="matrix(113.888889,0,0,-113.888889,1076.8783,519.6947)" fill="#0599d7"/>
<symbol id="font_2_7">
<path d="M .11100002 .41300003 L .11100002 .501 L 0 .501 L 0 0 L .112 0 C .112 0 .112 .306 .112 .329 L .19100002 .329 L .19100002 .39200003 L .323 .391 L .323 .282 L .423 .282 L .43100003 .43 C .407 .45900003 .356 .501 .277 .501 C .17000002 .501 .11100002 .41300003 .11100002 .41300003 Z "/>
</symbol>
<use xlink:href="#font_2_7" transform="matrix(113.888889,0,0,-113.888889,1139.1755,519.8086)" fill="#0599d7"/>
<symbol id="font_6_3">
<path d="M 0 0 L .010000002 0 L .010000002 .5 L 0 .5 L 0 0 M .02 0 L .030000005 0 L .030000005 .5 L .02 .5 L .02 0 M .040000004 .5 L .040000004 0 L .07000001 0 L .07000001 .5 L .040000004 .5 M .08000001 0 L .09 0 L .09 .5 L .08000001 .5 L .08000001 0 M .10000001 0 L .110000018 0 L .110000018 .5 L .10000001 .5 L .10000001 0 M .16000001 .28300003 L .17000002 .28300003 L .17000002 .5 L .16000001 .5 L .16000001 .28300003 M .18 .28300003 L .19000001 .28300003 L .19000001 .5 L .18 .5 L .18 .28300003 M .27 .5 L .2 .5 L .2 .39100004 L .27 .39100004 L .27 .5 M .28 .39100004 L .29 .39100004 L .29 .5 L .28 .5 L .28 .39100004 M .3 .39100004 L .31 .39100004 L .31 .5 L .3 .5 L .3 .39100004 M .32 0 L .33 0 L .33 .5 L .32 .5 L .32 0 M .34100003 0 L .351 0 L .351 .5 L .34100003 .5 L .34100003 0 M .48300005 .39200003 L .463 .39200003 L .463 .28300003 L .49300004 .28300003 L .49300004 .5 L .48300005 .5 L .48300005 .39200003 M .503 .28300003 L .513 .28300003 L .513 .5 L .503 .5 L .503 .28300003 M .523 .39100004 L .533 .39100004 L .533 .5 L .523 .5 L .523 .39100004 M .54300007 .39100004 L .55300006 .39100004 L .55300006 .5 L .54300007 .5 L .54300007 .39100004 M .563 .39100004 L .573 .39100004 L .573 .5 L .563 .5 L .563 .39100004 M .583 .39100004 L .593 .39100004 L .593 .5 L .583 .5 L .583 .39100004 M .60300007 .39100004 L .61300006 .39100004 L .61300006 .5 L .60300007 .5 L .60300007 .39100004 M .623 .39100004 L .633 .39100004 L .633 .5 L .623 .5 L .623 .39100004 M .643 0 L .653 0 L .653 .5 L .643 .5 L .643 0 M .66400006 0 L .674 0 L .674 .5 L .66400006 .5 L .66400006 0 M .361 0 L .37100003 0 L .37100003 .446 L .361 .446 L .361 0 M .381 0 L .391 0 L .391 .446 L .381 .446 L .381 0 M .40100003 0 L .411 0 L .411 .446 L .40100003 .446 L .40100003 0 M .42200003 0 L .432 0 L .432 .446 L .42200003 .446 L .42200003 0 M .684 0 L .694 0 L .694 .446 L .684 .446 L .684 0 M .704 .446 L .704 0 L .734 0 L .734 .446 L .704 .446 M .745 .446 L .745 0 L .75500008 0 L .75500008 .446 L .745 .446 M .120000008 .28300003 L .13000001 .28300003 L .13000001 .39200003 L .120000008 .39200003 L .120000008 .28300003 M .14000002 .28300003 L .15 .28300003 L .15 .39200003 L .14000002 .39200003 L .14000002 .28300003 M .44300003 .28300003 L .453 .28300003 L .453 .39200003 L .44300003 .39200003 L .44300003 .28300003 Z "/>
</symbol>
<use xlink:href="#font_6_3" transform="matrix(113.888889,0,0,-113.888889,1198.5116,519.6947)" fill="#0599d7"/>
<symbol id="font_3_8">
<path d="M .25100003 .56700006 L .25100003 .70000007 L .24100001 .70000007 L .24100001 .56700006 L .25100003 .56700006 M .261 .70000007 L .261 .56700006 L .271 .56700006 L .271 .70000007 L .261 .70000007 M .28100003 .70000007 L .28100003 .61 L .291 .61 L .291 .70000007 L .28100003 .70000007 M .301 .70000007 L .301 .61 L .31100003 .61 L .31100003 .70000007 L .301 .70000007 M .21100001 .56700006 L .21100001 .65500006 L .20100002 .65500006 L .20100002 .56700006 L .21100001 .56700006 M .23100002 .56700006 L .23100002 .65500006 L .22100003 .65500006 L .22100003 .56700006 L .23100002 .56700006 M .08000001 .5 L .08000001 0 L .09 0 L .09 .5 L .08000001 .5 M .11100002 0 L .11100002 .5 L .10100001 .5 L .10100001 0 L .11100002 0 M .13100001 .39000003 L .13100001 .5 L .12100001 .5 L .12100001 .39000003 L .13100001 .39000003 M .15100001 .39000003 L .15100001 .5 L .14100002 .5 L .14100002 .39000003 L .15100001 .39000003 M .17100002 .39000003 L .17100002 .5 L .16100002 .5 L .16100002 .39000003 L .17100002 .39000003 M .19100002 .39000003 L .19100002 .5 L .18100001 .5 L .18100001 .39000003 L .19100002 .39000003 M .21100001 .39000003 L .21100001 .5 L .20100002 .5 L .20100002 .39000003 L .21100001 .39000003 M .23100002 .39000003 L .23100002 .5 L .22100003 .5 L .22100003 .39000003 L .23100002 .39000003 M .25100003 .39000003 L .25100003 .5 L .24100001 .5 L .24100001 .39000003 L .25100003 .39000003 M .271 .39000003 L .271 .5 L .261 .5 L .261 .39000003 L .271 .39000003 M .28100003 .5 L .28100003 .39000003 L .291 .39000003 L .291 .5 L .28100003 .5 M .301 .5 L .301 .39000003 L .31100003 .39000003 L .31100003 .5 L .301 .5 M .321 .5 L .321 0 L .331 0 L .331 .5 L .321 .5 M .34100003 .5 L .34100003 0 L .351 0 L .351 .5 L .34100003 .5 M .361 .5 L .361 0 L .37100003 0 L .37100003 .5 L .361 .5 M .381 .5 L .381 0 L .391 0 L .391 .5 L .381 .5 M .40100003 .5 L .40100003 0 L .411 0 L .411 .5 L .40100003 .5 M .421 .5 L .421 0 L .43100003 0 L .43100003 .5 L .421 .5 M 0 .39000003 L 0 .09 L .010000002 .09 L .010000002 .39000003 L 0 .39000003 M .02 .39000003 L .02 .09 L .030000005 .09 L .030000005 .39000003 L .02 .39000003 M .040000004 .39000003 L .040000004 .09 L .05 .09 L .05 .39000003 L .040000004 .39000003 M .060000007 .39000003 L .060000007 .09 L .07000001 .09 L .07000001 .39000003 L .060000007 .39000003 M .21100001 0 L .21100001 .22100002 L .20100002 .22100002 L .20100002 0 L .21100001 0 M .23100002 0 L .23100002 .22100002 L .22100003 .22100002 L .22100003 0 L .23100002 0 M .25100003 .11000001 L .25100003 .22100002 L .24100001 .22100002 L .24100001 .11000001 L .25100003 .11000001 M .271 .11000001 L .271 .22100002 L .261 .22100002 L .261 .11000001 L .271 .11000001 M .28100003 .22100002 L .28100003 .11000001 L .291 .11000001 L .291 .22100002 L .28100003 .22100002 M .301 .22100002 L .301 .11000001 L .31100003 .11000001 L .31100003 .22100002 L .301 .22100002 M .13100001 0 L .13100001 .11000001 L .12100001 .11000001 L .12100001 0 L .13100001 0 M .15100001 0 L .15100001 .11000001 L .14100002 .11000001 L .14100002 0 L .15100001 0 M .17100002 0 L .17100002 .11000001 L .16100002 .11000001 L .16100002 0 L .17100002 0 M .19100002 0 L .19100002 .11000001 L .18100001 .11000001 L .18100001 0 L .19100002 0 Z "/>
</symbol>
<use xlink:href="#font_3_8" transform="matrix(113.888889,0,0,-113.888889,1295.5449,519.6947)" fill="#0599d7"/>
<use xlink:href="#font_5_7" transform="matrix(113.888889,0,0,-113.888889,1355.7921,519.6947)" fill="#0599d7"/>
<use xlink:href="#font_5_4" transform="matrix(113.888889,0,0,-113.888889,1392.1227,519.6947)" fill="#0599d7"/>
<symbol id="font_2_2">
<path d="M .244 .5 C .10400002 .5 0 .393 0 .25300003 C 0 .113000009 .075 0 .24200003 0 C .36400003 0 .432 .09 .432 .09 L .432 .11000001 L .110000018 .11000001 L .112 .39100004 L .322 .39100004 L .322 .28100003 L .423 .28100003 L .432 .42700003 C .432 .42700003 .373 .5 .244 .5 Z "/>
</symbol>
<use xlink:href="#font_2_2" transform="matrix(113.888889,0,0,-113.888889,1416.6089,519.6947)" fill="#0599d7"/>
<symbol id="font_6_1">
<path d="M .08000001 .5 L .08000001 .39000003 L .060000007 .39000003 L .060000007 .09 L .08000001 .09 L .08000001 0 L .11100002 0 L .11100002 .5 L .08000001 .5 M .12100001 .39000003 L .13100001 .39000003 L .13100001 .5 L .12100001 .5 L .12100001 .39000003 M .14100002 .39000003 L .15100001 .39000003 L .15100001 .5 L .14100002 .5 L .14100002 .39000003 M .16100002 .39000003 L .17100002 .39000003 L .17100002 .5 L .16100002 .5 L .16100002 .39000003 M .18100001 .39000003 L .19100002 .39000003 L .19100002 .5 L .18100001 .5 L .18100001 .39000003 M .20100002 .39000003 L .21100001 .39000003 L .21100001 .5 L .20100002 .5 L .20100002 .39000003 M .22100003 .39000003 L .23100002 .39000003 L .23100002 .5 L .22100003 .5 L .22100003 .39000003 M .24100001 .39000003 L .25100003 .39000003 L .25100003 .5 L .24100001 .5 L .24100001 .39000003 M .261 .39000003 L .271 .39000003 L .271 .5 L .261 .5 L .261 .39000003 M .28100003 .39000003 L .291 .39000003 L .291 .5 L .28100003 .5 L .28100003 .39000003 M .351 .5 L .301 .5 L .301 .39000003 L .321 .39000003 L .321 .22100002 L .301 .22100002 L .301 .11000001 L .321 .11000001 L .321 0 L .351 0 L .351 .5 M .361 0 L .37100003 0 L .37100003 .5 L .361 .5 L .361 0 M .381 0 L .391 0 L .391 .5 L .381 .5 L .381 0 M .40100003 0 L .411 0 L .411 .5 L .40100003 .5 L .40100003 0 M .421 .5 L .421 0 L .43100003 0 L .43100003 .5 L .421 .5 M 0 .09 L .010000002 .09 L .010000002 .39000003 L 0 .39000003 L 0 .09 M .02 .09 L .030000005 .09 L .030000005 .39000003 L .02 .39000003 L .02 .09 M .040000004 .09 L .05 .09 L .05 .39000003 L .040000004 .39000003 L .040000004 .09 M .20100002 0 L .21100001 0 L .21100001 .22100002 L .20100002 .22100002 L .20100002 0 M .22100003 0 L .23100002 0 L .23100002 .22100002 L .22100003 .22100002 L .22100003 0 M .24100001 .11000001 L .25100003 .11000001 L .25100003 .22100002 L .24100001 .22100002 L .24100001 .11000001 M .261 .11000001 L .271 .11000001 L .271 .22100002 L .261 .22100002 L .261 .11000001 M .28100003 .11000001 L .291 .11000001 L .291 .22100002 L .28100003 .22100002 L .28100003 .11000001 M .12100001 0 L .13100001 0 L .13100001 .11000001 L .12100001 .11000001 L .12100001 0 M .14100002 0 L .15100001 0 L .15100001 .11000001 L .14100002 .11000001 L .14100002 0 M .16100002 0 L .17100002 0 L .17100002 .11000001 L .16100002 .11000001 L .16100002 0 M .18100001 0 L .19100002 0 L .19100002 .11000001 L .18100001 .11000001 L .18100001 0 Z "/>
</symbol>
<use xlink:href="#font_6_1" transform="matrix(113.888889,0,0,-113.888889,1477.5394,519.6947)" fill="#0599d7"/>
</g>
</svg>
